<svg viewBox="0 0 581 135" fill="none" xmlns="http://www.w3.org/2000/svg"><path d="M129.1 45.5h6.6l.4 8.1c1.6-2.9 3.9-5.1 6.7-6.7 2.8-1.6 5.9-2.4 9.3-2.4 3 .1 5.7.7 8.2 1.7 2.5 1 4.6 2.5 6.4 4.4 1.8 1.9 3.2 4.2 4.2 6.8 1 2.7 1.5 5.7 1.5 9s-.5 6.3-1.5 9-2.4 5-4.2 6.9c-1.8 1.9-3.9 3.4-6.5 4.4-2.5 1-5.4 1.5-8.5 1.5-3 0-5.9-.7-8.9-2.1-2.9-1.4-5.2-3.5-7-6.4V107H129V45.5h.1zm22.2 36.3c4.2 0 7.6-1.3 10.2-4 2.6-2.7 3.9-6.4 3.9-11.2 0-5-1.3-8.8-3.9-11.4-2.6-2.6-6-3.9-10.2-3.9-2.2 0-4.2.4-6 1.2-1.8.8-3.3 1.9-4.6 3.2-1.3 1.4-2.3 3-3 4.8-.7 1.9-1.1 3.9-1.1 6s.4 4.2 1.1 6c.7 1.9 1.7 3.5 3 4.8 1.3 1.3 2.8 2.4 4.6 3.2 1.9.9 3.9 1.3 6 1.3zM189.7 87.3h-6.9V28h6.9v59.3zM237.4 87.3l-.2-7.4c-.8 1.4-1.9 2.6-3 3.7-1.2 1-2.4 1.9-3.8 2.6-1.4.7-2.8 1.2-4.3 1.6-1.5.4-3 .5-4.4.5-3 0-5.8-.5-8.4-1.5-2.6-1-4.9-2.5-6.8-4.4-1.9-1.9-3.4-4.2-4.5-6.9s-1.7-5.8-1.7-9.2c0-3.6.6-6.7 1.7-9.4s2.7-5 4.6-6.8c1.9-1.8 4.2-3.2 6.8-4.2 2.6-1 5.4-1.4 8.4-1.4 3.3 0 6.3.7 9 2 2.7 1.4 4.8 3.5 6.5 6.5l.1-7.6h6.8v41.9h-6.8zm-15.2-36.2c-2.1 0-4.1.4-5.9 1.1-1.8.7-3.4 1.7-4.8 3s-2.4 2.9-3.2 4.9c-.8 1.9-1.2 4.1-1.2 6.6 0 2.3.4 4.4 1.2 6.3.8 1.9 1.9 3.5 3.2 4.8 1.4 1.3 3 2.4 4.8 3.1 1.8.7 3.8 1.1 5.9 1.1 3.4 0 6.2-.8 8.5-2.3 2.3-1.5 4-3.4 5.1-5.7 1.1-2.3 1.7-4.8 1.7-7.5s-.6-5.2-1.7-7.5-2.8-4.2-5.1-5.7c-2.3-1.4-5.1-2.2-8.5-2.2zM291.8 81.9c-2.2 2.3-4.6 3.9-7.2 4.9-2.6 1-5.4 1.5-8.3 1.5-3 0-5.8-.5-8.5-1.5s-5-2.4-7-4.3-3.5-4.2-4.7-6.9c-1.2-2.7-1.7-5.8-1.7-9.3 0-3.4.6-6.5 1.7-9.2 1.1-2.7 2.7-5 4.7-6.9 2-1.9 4.3-3.3 7-4.3s5.5-1.5 8.6-1.5c2.9 0 5.6.5 8.1 1.5s4.9 2.6 7.1 4.7l-4.5 4.6c-1.5-1.5-3.1-2.5-5-3.2-1.8-.7-3.7-1-5.6-1-2.1 0-4.1.4-5.9 1.1-1.8.7-3.4 1.7-4.8 3s-2.4 2.9-3.2 4.8c-.8 1.9-1.2 4-1.2 6.4 0 2.5.4 4.7 1.2 6.6.8 1.9 1.9 3.5 3.3 4.8 1.4 1.3 3 2.3 4.8 3 1.8.7 3.7 1 5.8 1 2 0 3.9-.4 5.8-1.1 1.9-.7 3.6-1.8 5.1-3.3l4.4 4.6zM337.4 80.9c-2.2 2.5-5 4.4-8.3 5.6-3.3 1.2-6.6 1.8-9.9 1.8-3.2 0-6.2-.5-8.9-1.5s-5-2.5-7-4.4c-1.9-1.9-3.5-4.3-4.5-7-1.1-2.7-1.6-5.8-1.6-9.2 0-3.2.5-6.1 1.6-8.7 1.1-2.7 2.6-4.9 4.5-6.9 1.9-1.9 4.2-3.4 6.9-4.5s5.6-1.6 8.7-1.6c3.2 0 6.2.5 8.9 1.4 2.7 1 5 2.4 7 4.5 1.9 2 3.3 4.5 4.3 7.6 1 3.1 1.2 6.6.8 10.8h-35.7c.2 2 .7 3.9 1.6 5.5.9 1.6 2 3 3.3 4.2 1.4 1.2 2.9 2 4.7 2.6 1.8.6 3.7.9 5.6.9 1.2 0 2.4-.1 3.7-.3 1.3-.2 2.5-.6 3.7-1 1.2-.4 2.3-1 3.3-1.6 1-.6 1.9-1.4 2.6-2.2l4.7 4zM333.2 63c-.1-4.1-1.5-7.1-4-9.2-2.6-2-5.9-3.1-10-3.1-1.8 0-3.5.3-5.2.8-1.7.5-3.2 1.3-4.5 2.3-1.3 1-2.4 2.3-3.3 3.8-.9 1.5-1.5 3.3-1.9 5.3h28.9v.1z" fill="#fff"/><path d="M361.1 45.3H374v5.9h-13v22.9c0 2.5.5 4.5 1.4 5.9.9 1.4 2.7 2.2 5.2 2.2 1 0 1.9-.2 2.9-.5s1.9-.7 2.9-1.1l2 5.8c-2.7 1.3-5.4 2-8.1 2-4.6.1-7.9-1.1-10-3.6-2.1-2.5-3.2-6.1-3.2-10.6v-23h-8.4v-5.9h8.4V34l7-.8v12.1zM380.2 66.4c0-3.2.6-6.2 1.7-8.9s2.6-5 4.5-7c1.9-1.9 4.2-3.4 6.9-4.5s5.5-1.6 8.6-1.6c3.2 0 6.1.5 8.8 1.6 2.7 1.1 5 2.6 7 4.5 1.9 1.9 3.5 4.2 4.5 7 1.1 2.7 1.6 5.7 1.6 8.9s-.6 6.2-1.7 8.9-2.6 5-4.6 6.9c-2 1.9-4.3 3.4-7 4.5s-5.6 1.6-8.7 1.6c-3.2 0-6.1-.5-8.7-1.6-2.6-1.1-4.9-2.6-6.9-4.5s-3.5-4.2-4.5-6.9-1.5-5.6-1.5-8.9zm36.6 0c0-2.3-.4-4.4-1.1-6.3-.8-1.9-1.8-3.5-3.1-4.9-1.3-1.4-2.9-2.4-4.7-3.2-1.8-.8-3.8-1.1-5.8-1.1-2.1 0-4.1.4-5.9 1.1-1.8.8-3.4 1.8-4.7 3.2-1.3 1.4-2.4 3-3.1 4.9-.8 1.9-1.1 4-1.1 6.3s.4 4.3 1.1 6.2c.8 1.9 1.8 3.5 3.1 4.9 1.3 1.4 2.9 2.4 4.7 3.1 1.8.7 3.8 1.1 5.9 1.1 2.1 0 4.1-.4 6-1.1 1.8-.7 3.4-1.8 4.7-3.1 1.3-1.4 2.4-3 3.1-4.9.5-1.8.9-3.9.9-6.2z" fill="#FF6C0C"/><path d="M434.6 45.5h6.6l.4 8.1c1.6-2.9 3.9-5.1 6.7-6.7 2.8-1.6 5.9-2.4 9.3-2.4 3 .1 5.7.7 8.2 1.7 2.5 1 4.6 2.5 6.4 4.4 1.8 1.9 3.2 4.2 4.2 6.8 1 2.7 1.5 5.7 1.5 9s-.5 6.3-1.5 9-2.4 5-4.2 6.9c-1.8 1.9-3.9 3.4-6.5 4.4-2.5 1-5.4 1.5-8.5 1.5-3 0-5.9-.7-8.9-2.1-2.9-1.4-5.2-3.5-7-6.4V107h-6.8V45.5h.1zm22.2 36.3c4.2 0 7.6-1.3 10.2-4 2.6-2.7 3.9-6.4 3.9-11.2 0-5-1.3-8.8-3.9-11.4-2.6-2.6-6-3.9-10.2-3.9-2.2 0-4.2.4-6 1.2-1.8.8-3.3 1.9-4.6 3.2-1.3 1.4-2.3 3-3 4.8-.7 1.9-1.1 3.9-1.1 6s.4 4.2 1.1 6c.7 1.9 1.7 3.5 3 4.8 1.3 1.3 2.8 2.4 4.6 3.2 1.9.9 3.8 1.3 6 1.3zM522.2 87.3l-.2-7.4c-.8 1.4-1.9 2.6-3 3.7-1.2 1-2.4 1.9-3.8 2.6-1.4.7-2.8 1.2-4.3 1.6-1.5.4-3 .5-4.4.5-3 0-5.8-.5-8.4-1.5-2.6-1-4.9-2.5-6.8-4.4-1.9-1.9-3.4-4.2-4.5-6.9s-1.7-5.8-1.7-9.2c0-3.6.6-6.7 1.7-9.4s2.7-5 4.6-6.8c1.9-1.8 4.2-3.2 6.8-4.2 2.6-1 5.4-1.4 8.4-1.4 3.3 0 6.3.7 9 2 2.7 1.4 4.8 3.5 6.5 6.5l.1-7.6h6.8v41.9h-6.8zM507 51.1c-2.1 0-4.1.4-5.9 1.1-1.8.7-3.4 1.7-4.8 3s-2.4 2.9-3.2 4.9c-.8 1.9-1.2 4.1-1.2 6.6 0 2.3.4 4.4 1.2 6.3.8 1.9 1.9 3.5 3.2 4.8 1.4 1.3 3 2.4 4.8 3.1 1.8.7 3.8 1.1 5.9 1.1 3.4 0 6.2-.8 8.5-2.3 2.3-1.5 4-3.4 5.1-5.7 1.1-2.3 1.7-4.8 1.7-7.5s-.6-5.2-1.7-7.5-2.8-4.2-5.1-5.7c-2.3-1.4-5.1-2.2-8.5-2.2zM553.8 107.1h-7.6l8.8-20.4-17-41.3h8l8.2 21.7 4.7 12 4.4-12 9.2-21.8h7.6l-26.3 61.8z" fill="#fff"/><path d="M3.9 134.9c-.7 0-1.4-.2-1.9-.5-1.2-.7-2-2.1-2-3.6V99.1c0-1.5.8-2.8 2-3.6l47.5-28.1L7.9 42.8v30.3c0 2.3-1.8 4.1-3.9 4.1-2.2 0-3.9-1.8-3.9-4.1V35.7c0-1.5.8-2.8 2-3.6.6-.4 1.3-.5 2-.5s1.4.2 2 .5l53.5 31.7c1.2.7 2 2.1 2 3.6s-.8 2.8-2 3.6L8.1 101.5v22.2l79.3-46.9c3.3-2 5.3-5.5 5.3-9.4 0-3.9-2-7.4-5.3-9.4L2.2 7.6C.3 6.5-.4 3.9.7 2c.7-1.3 2-2 3.4-2 .7 0 1.4.2 1.9.5L91 51c5.8 3.4 9.3 9.6 9.3 16.5S96.8 80.6 91 84L5.8 134.4c-.6.3-1.2.5-1.9.5z" fill="#FF6C0C"/></svg>
